HIERARCHY
ROOT Hips
{
  OFFSET 56.0019 96.8026 2.74298
  CHANNELS 6 Xposition Yposition Zposition Zrotation Xrotation Yrotation
  JOINT spine
  {
    OFFSET 0 7.96568 0.458067
    CHANNELS 3 Zrotation Xrotation Yrotation
    JOINT spine1
    {
      OFFSET 0 10.2431 0
      CHANNELS 3 Zrotation Xrotation Yrotation
      JOINT spine2
      {
        OFFSET 0 9.81475 0
        CHANNELS 3 Zrotation Xrotation Yrotation
        JOINT Neck
        {
          OFFSET 0 25.1986 1.20138
          CHANNELS 3 Zrotation Xrotation Yrotation
          JOINT Head
          {
            OFFSET 0 7.61315 0
            CHANNELS 3 Zrotation Xrotation Yrotation
            End Site
            {
              OFFSET 0 18.4281 -6.07733
            }
          }
        }
        JOINT RightShoulder
        {
          OFFSET -4.1327 10.5992 -0.575451
          CHANNELS 3 Zrotation Xrotation Yrotation
          JOINT RightArm
          {
            OFFSET 0 13.9018 0
            CHANNELS 3 Zrotation Xrotation Yrotation
            JOINT RightArmRoll
            {
              OFFSET 0 7.01789 0
              CHANNELS 3 Zrotation Xrotation Yrotation
              JOINT RightForeArm
              {
                OFFSET 0 20.4406 0
                CHANNELS 3 Zrotation Xrotation Yrotation
                JOINT RightForeArmRoll
                {
                  OFFSET 0 7.87515 0
                  CHANNELS 3 Zrotation Xrotation Yrotation
                  JOINT RightHand
                  {
                    OFFSET 0 15.8037 0
                    CHANNELS 3 Zrotation Xrotation Yrotation
                    End Site
                    {
                      OFFSET 0 0 0
                    }
                  }
                }
              }
            }
          }
        }
        JOINT LeftShoulder
        {
          OFFSET 4.1327 10.5992 -0.575451
          CHANNELS 3 Zrotation Xrotation Yrotation
          JOINT LeftArm
          {
            OFFSET 0 13.9018 0
            CHANNELS 3 Zrotation Xrotation Yrotation
            JOINT LeftArmRoll
            {
              OFFSET 0 7.01788 0
              CHANNELS 3 Zrotation Xrotation Yrotation
              JOINT LeftForeArm
              {
                OFFSET 0 20.4406 0
                CHANNELS 3 Zrotation Xrotation Yrotation
                JOINT LeftForeArmRoll
                {
                  OFFSET 0 7.87515 0
                  CHANNELS 3 Zrotation Xrotation Yrotation
                  JOINT LeftHand
                  {
                    OFFSET 0 15.8037 0
                    CHANNELS 3 Zrotation Xrotation Yrotation
                    End Site
                    {
                      OFFSET 0 0 0
                    }
                  }
                }
              }
            }
          }
        }
      }
    }
  }
  JOINT RightUpLeg
  {
    OFFSET -7.06048 -1.2947 -1.0861
    CHANNELS 3 Zrotation Xrotation Yrotation
    JOINT RightUpLegRoll
    {
      OFFSET 0 18.5308 0
      CHANNELS 3 Zrotation Xrotation Yrotation
      JOINT RightLeg
      {
        OFFSET 0 -22.9476 0
        CHANNELS 3 Zrotation Xrotation Yrotation
        JOINT RightLegRoll
        {
          OFFSET 0 23.0226 0
          CHANNELS 3 Zrotation Xrotation Yrotation
          JOINT RightFoot
          {
            OFFSET 0 19.1625 0
            CHANNELS 3 Zrotation Xrotation Yrotation
            JOINT RightToeBase
            {
              OFFSET 0 16.0188 0
              CHANNELS 3 Zrotation Xrotation Yrotation
              End Site
              {
                OFFSET 0.00678979 7.75782 -0.894207
              }
            }
          }
        }
      }
    }
  }
  JOINT LeftUpLeg
  {
    OFFSET 7.06048 -1.2947 -1.0861
    CHANNELS 3 Zrotation Xrotation Yrotation
    JOINT LeftUpLegRoll
    {
      OFFSET 0 18.5309 0
      CHANNELS 3 Zrotation Xrotation Yrotation
      JOINT LeftLeg
      {
        OFFSET 0 22.9475 0
        CHANNELS 3 Zrotation Xrotation Yrotation
        JOINT LeftLegRoll
        {
          OFFSET 0 23.2355 0
          CHANNELS 3 Zrotation Xrotation Yrotation
          JOINT LeftFoot
          {
            OFFSET 0 18.9496 0
            CHANNELS 3 Zrotation Xrotation Yrotation
            JOINT LeftToeBase
            {
              OFFSET 0 16.0188 0
              CHANNELS 3 Zrotation Xrotation Yrotation
              End Site
              {
                OFFSET -0.0304289 7.75782 -0.894207
              }
            }
          }
        }
      }
    }
  }
}
MOTION
Frames: 9
Frame Time: 0.00208333
58.8482 97.0757 11.7121 3.2416 -1.65025 4.26444 -0.178393 -0.985919 -0.247426 -0.35881 2.03177 -0.474632 -0.353447 3.6768 -0.468948 -21.0496 7.11415 2.28581 14.7272 -3.82933 -0.33647 22.495 -12.3055 -8.8327 43.2844 9.79209 64.4923 8.96436e-007 1.01431e-006 1.99398e-006 -7.35591 77.4021 10.5916 -5.43752e-006 -2.88357e-006 -3.00362 8.0296 -4.95141 0.697654 -40.342 -11.8225 7.75026 -37.503 25.2507 -68.8448 7.95139e-015 -6.75868e-015 -2.22639e-014 18.9463 69.8104 -17.9422 1.16966e-005 -3.45868e-007 3.01042 -8.02947 -4.95143 -0.697659 155.021 4.39823 7.77161 180 7.01295e-015 178.124 -173.157 10.2285 178.742 -2.21324e-006 -6.73996e-007 -1.16185 -17.128 62.2102 15.4874 8.12475 25.0607 -3.63782 -160.482 6.8645 -7.59396 4.54188e-006 -4.67731e-006 -1.40137 3.51334 -20.7446 1.32663 5.39004e-007 -2.57541e-006 -0.398543 19.3206 68.099 -19.6215 -8.13284 25.1788 3.54034 
58.8315 97.3118 11.6452 3.25843 -1.62258 4.19761 -0.18359 -0.975607 -0.255651 -0.369214 2.05243 -0.490468 -0.363674 3.69746 -0.484622 -20.9975 6.6991 2.24451 14.7873 -3.50683 -0.322296 22.7917 -12.2916 -8.80347 43.8709 9.69483 64.2233 8.96436e-007 1.01431e-006 1.99398e-006 -7.27733 77.3404 10.4747 -5.43752e-006 -2.88357e-006 -3.00362 8.0296 -4.95141 0.697654 -40.5611 -11.7565 7.68724 -38.1352 24.9392 -68.5032 1.27222e-014 -1.59028e-015 -1.27222e-014 18.9019 69.5051 -17.7941 1.16966e-005 -3.45868e-007 3.01041 -8.02947 -4.95143 -0.697659 155.142 4.2029 7.82652 180 7.0128e-015 178.087 -173.291 9.62413 178.821 -2.21324e-006 -6.73997e-007 -1.17889 -16.9979 62.0621 15.4103 8.1284 25.1126 -3.59257 -160.624 6.69395 -7.53535 4.54188e-006 -4.67731e-006 -1.39155 3.38724 -20.2391 1.26601 5.39004e-007 -2.57541e-006 -0.382169 19.2878 68.0781 -19.6035 -8.13395 25.1951 3.52447 
58.8313 97.6267 11.6342 3.27239 -1.58933 4.13136 -0.187375 -0.96704 -0.263615 -0.376793 2.06959 -0.505943 -0.371076 3.71462 -0.499982 -20.9825 6.29439 2.20544 14.882 -3.19382 -0.310125 23.0712 -12.2736 -8.7702 44.4765 9.58484 63.9573 8.96436e-007 1.01431e-006 1.99398e-006 -7.19316 77.303 10.3599 -5.43752e-006 -2.88357e-006 -3.00362 8.0296 -4.95141 0.697654 -40.8085 -11.6924 7.626 -38.726 24.6355 -68.1636 -6.36111e-015 -1.74931e-014 -0 18.8405 69.188 -17.6267 1.16966e-005 -3.45868e-007 3.01041 -8.02947 -4.95143 -0.697659 155.269 4.03682 7.87559 180 7.01266e-015 178.054 -173.417 9.08013 178.892 -2.21324e-006 -6.73997e-007 -1.19232 -16.8784 61.9325 15.3442 8.13162 25.1595 -3.55164 -160.765 6.54152 -7.47823 4.54188e-006 -4.6773e-006 -1.38219 3.26619 -19.7654 1.20895 5.39004e-007 -2.5754e-006 -0.366755 19.256 68.0576 -19.5859 -8.13495 25.2098 3.51012 
58.8631 97.9606 11.6659 3.28286 -1.54945 4.06547 -0.189394 -0.960629 -0.27122 -0.380843 2.08244 -0.520902 -0.374951 3.72746 -0.514886 -21.0106 5.9029 2.16917 15.0157 -2.89219 -0.300387 23.3291 -12.2507 -8.73208 45.103 9.45907 63.6935 8.96436e-007 1.01431e-006 1.99398e-006 -7.10325 77.293 10.2477 -5.43752e-006 -2.88357e-006 -3.00362 8.0296 -4.95141 0.697654 -41.0895 -11.6307 7.56703 -39.2678 24.3408 -67.8249 1.59028e-015 6.75868e-015 -9.54166e-015 18.76 68.8581 -17.4371 1.16966e-005 -3.45868e-007 3.0104 -8.02947 -4.95143 -0.697659 155.4 3.90567 7.9183 180 7.01255e-015 178.026 -173.533 8.60664 178.954 -2.21324e-006 -6.73998e-007 -1.20186 -16.7715 61.8242 15.2902 8.13418 25.1977 -3.51833 -160.904 6.41037 -7.42364 4.54188e-006 -4.6773e-006 -1.37336 3.15031 -19.3293 1.1557 5.39004e-007 -2.5754e-006 -0.352494 19.2258 68.0379 -19.569 -8.13575 25.2217 3.49845 
58.833 98.2274 11.6346 3.28926 -1.50192 3.99971 -0.189296 -0.956785 -0.278368 -0.380661 2.09013 -0.535192 -0.374598 3.73516 -0.52919 -21.0875 5.52748 2.13629 15.1927 -2.60381 -0.293512 23.5614 -12.222 -8.68833 45.7524 9.31439 63.4309 8.96436e-007 1.01431e-006 1.99398e-006 -7.0074 77.313 10.1388 -5.43752e-006 -2.88357e-006 -3.00362 8.0296 -4.95141 0.697654 -41.4096 -11.5721 7.51084 -39.7529 24.0563 -67.4859 -3.18055e-015 -2.78299e-015 3.18055e-015 18.6586 68.514 -17.2232 1.16966e-005 -3.45868e-007 3.0104 -8.02947 -4.95143 -0.697659 155.534 3.81513 7.95413 180 7.01245e-015 178.005 -173.641 8.21378 179.008 -2.21324e-006 -6.73998e-007 -1.20727 -16.6792 61.7397 15.2494 8.13588 25.2233 -3.49594 -161.04 6.30365 -7.37256 4.54188e-006 -4.6773e-006 -1.36512 3.03973 -18.9369 1.1065 5.39004e-007 -2.5754e-006 -0.339575 19.1975 68.0191 -19.5529 -8.13629 25.2297 3.4906 
58.7935 98.407 11.5664 3.29097 -1.44568 3.93386 -0.186727 -0.955918 -0.284962 -0.375545 2.09186 -0.548657 -0.369316 3.73689 -0.54275 -21.219 5.17099 2.10738 15.4175 -2.33056 -0.289928 23.7639 -12.1868 -8.63815 46.4265 9.14755 63.1689 8.96436e-007 1.01431e-006 1.99398e-006 -6.90534 77.3659 10.0335 -5.43752e-006 -2.88357e-006 -3.00362 8.0296 -4.95141 0.697654 -41.774 -11.5174 7.45793 -40.1734 23.7832 -67.1454 1.59028e-015 -5.56597e-015 3.18055e-015 18.5346 68.1546 -16.9828 1.16966e-005 -3.45868e-007 3.0104 -8.02947 -4.95143 -0.697659 155.671 3.77087 7.98258 180 7.01239e-015 177.99 -173.74 7.91169 179.051 -2.21324e-006 -6.73998e-007 -1.20828 -16.6036 61.6818 15.223 8.13649 25.2327 -3.48774 -161.173 6.22452 -7.326 4.54188e-006 -4.6773e-006 -1.35756 2.93455 -18.5943 1.06159 5.39004e-007 -2.5754e-006 -0.32819 19.1714 68.0016 -19.5378 -8.13649 25.2327 3.48773 
58.7954 98.7398 11.5633 3.28936 -1.37876 3.86948 -0.181638 -0.958389 -0.291353 -0.3654 2.0869 -0.562004 -0.359 3.73193 -0.556276 -21.4241 4.83256 2.084 15.7084 -2.0728 -0.288869 23.9254 -12.1455 -8.58203 47.1422 8.95694 62.9119 8.96436e-007 1.01431e-006 1.99398e-006 -6.78401 77.4677 9.92482 -5.43752e-006 -2.88357e-006 -3.00362 8.0296 -4.95141 0.697654 -42.1967 -11.4634 7.40584 -40.5167 23.5174 -66.8048 1.59028e-015 3.57812e-015 -6.36111e-015 18.3891 67.773 -16.7146 1.16966e-005 -3.45868e-007 3.01039 -8.02947 -4.95143 -0.697659 155.813 3.77376 8.00357 180 7.01236e-015 177.982 -173.828 7.702 179.082 -2.21324e-006 -6.73999e-007 -1.20374 -16.5426 61.6526 15.2122 8.13649 25.2327 -3.48774 -161.305 6.17319 -7.28097 4.54188e-006 -4.6773e-006 -1.35068 2.83593 -18.2956 1.02117 5.39004e-007 -2.5754e-006 -0.318092 19.1464 67.984 -19.5227 -8.13649 25.2327 3.48773 
58.77 98.9228 11.5446 3.2861 -1.30089 3.80795 -0.174401 -0.963989 -0.29791 -0.350975 2.07568 -0.57593 -0.344393 3.7207 -0.570453 -21.7098 4.50824 2.0666 16.0739 -1.82863 -0.289273 24.0425 -12.0996 -8.52125 47.9095 8.74497 62.6645 8.96436e-007 1.01431e-006 1.99398e-006 -6.63232 77.6271 9.80515 -5.43752e-006 -2.88357e-006 -3.00362 8.0296 -4.95141 0.697654 -42.6821 -11.407 7.35221 -40.7824 23.2546 -66.4658 1.59028e-015 -2.14687e-014 -1.59028e-014 18.2272 67.3655 -16.4225 1.16966e-005 -3.45868e-007 3.01039 -8.02947 -4.95143 -0.697659 155.962 3.81787 8.01766 180 7.01234e-015 177.978 -173.901 7.57415 179.102 -2.21324e-006 -6.73999e-007 -1.1931 -16.492 61.6504 15.2162 8.13649 25.2327 -3.48774 -161.438 6.1462 -7.23404 4.54188e-006 -4.6773e-006 -1.34444 2.74437 -18.0294 0.985022 5.39004e-007 -2.5754e-006 -0.308882 19.1208 67.9648 -19.5062 -8.13649 25.2327 3.48773 
58.7558 99.1966 11.5249 3.28116 -1.21363 3.74882 -0.165298 -0.972271 -0.304566 -0.33283 2.05908 -0.590266 -0.326057 3.7041 -0.585101 -22.064 4.19629 2.05409 16.5034 -1.59652 -0.291126 24.1227 -12.0494 -8.45621 48.72 8.51437 62.4263 8.96436e-007 1.01431e-006 1.99398e-006 -6.45289 77.8355 9.67435 -5.43752e-006 -2.88357e-006 -3.00362 8.0296 -4.95141 0.697654 -43.2204 -11.3491 7.29764 -40.9816 22.9955 -66.1279 -3.18055e-015 -1.63003e-014 -9.54166e-015 18.0535 66.9354 -16.1124 1.16966e-005 -3.45868e-007 3.01039 -8.02947 -4.95143 -0.697659 156.116 3.89866 8.02522 180 7.01234e-015 177.979 -173.962 7.52012 179.112 -2.21324e-006 -6.73999e-007 -1.177 -16.4511 61.6727 15.2336 8.13649 25.2327 -3.48774 -161.573 6.14117 -7.18565 4.54188e-006 -4.6773e-006 -1.33876 2.65897 -17.7939 0.952729 5.39004e-007 -2.5754e-006 -0.300518 19.095 67.9444 -19.4887 -8.13649 25.2327 3.48773 
